<?xml version="1.0" encoding="utf-8"?>
<!-- Generator: Adobe Illustrator 23.0.3, SVG Export Plug-In . SVG Version: 6.00 Build 0)  -->
<svg version="1.1" id="Ebene_1" xmlns="http://www.w3.org/2000/svg" xmlns:xlink="http://www.w3.org/1999/xlink" x="0px" y="0px"
	 viewBox="0 0 1440 342" style="enable-background:new 0 0 1440 342;" xml:space="preserve">
<style type="text/css">
	.st0{fill-rule:evenodd;clip-rule:evenodd;fill:url(#SVGID_1_);}
	.st1{filter:url(#Adobe_OpacityMaskFilter);}
	.st2{fill-rule:evenodd;clip-rule:evenodd;fill:#FFFFFF;}
	.st3{mask:url(#f_1_);fill-rule:evenodd;clip-rule:evenodd;fill:url(#SVGID_2_);}
	.st4{fill-rule:evenodd;clip-rule:evenodd;fill:url(#SVGID_3_);}
</style>
<g transform="translate(-53)">
	<g transform="translate(0 103)">
		<g>
			
				<linearGradient id="SVGID_1_" gradientUnits="userSpaceOnUse" x1="465.6885" y1="464.0617" x2="465.6885" y2="463.0617" gradientTransform="matrix(228.5362 0 0 -238.7197 -106312.4063 110780.6719)">
				<stop  offset="0" style="stop-color:#35B8E8"/>
				<stop  offset="1" style="stop-color:#3BFFEA"/>
			</linearGradient>
			<path class="st0" d="M53.4,12.8c25.8,0,86.9,55.2,86.9,81.2c0,25.9-20.9,47-46.8,47c-25.8,0-61-21-61-47c0-25.9,35.2-47,61-47
				 M150.3,212C135,123.7,277.9,106,210.2,72.8S145.2,0.1,93.6,0C41.9,0,0,42.1,0,94C0,145.9,165.6,300.3,150.3,212z"/>
		</g>
		<defs>
			<filter id="Adobe_OpacityMaskFilter" filterUnits="userSpaceOnUse" x="63.6" y="25.5" width="223.9" height="224.2">
				<feColorMatrix  type="matrix" values="1 0 0 0 0  0 1 0 0 0  0 0 1 0 0  0 0 0 1 0"/>
			</filter>
		</defs>
		<mask maskUnits="userSpaceOnUse" x="63.6" y="25.5" width="223.9" height="224.2" id="f_1_">
			<g class="st1">
				<path id="c_1_" class="st2" d="M53.4,12.8c25.8,0,86.9,55.2,86.9,81.2c0,25.9-20.9,47-46.8,47c-25.8,0-61-21-61-47
					c0-25.9,35.2-47,61-47 M150.3,212C135,123.7,277.9,106,210.2,72.8S145.2,0.1,93.6,0C41.9,0,0,42.1,0,94
					C0,145.9,165.6,300.3,150.3,212z"/>
			</g>
		</mask>
		
			<linearGradient id="SVGID_2_" gradientUnits="userSpaceOnUse" x1="466.0949" y1="463.6205" x2="465.1656" y2="463.2717" gradientTransform="matrix(223.8567 0 0 -224.152 -104063.4531 104032.2188)">
			<stop  offset="0" style="stop-color:#FFFFFF;stop-opacity:0.64"/>
			<stop  offset="1" style="stop-color:#FFFFFF;stop-opacity:0"/>
		</linearGradient>
		<path class="st3" d="M263,60.6l-23.5,47.2c-6.3-25.1-35.2-54.1-60.3-47.8s-37.1,45.5-30.8,70.6c6.3,25.1,31.7,40.3,56.9,34
			C230.4,158.3,269.2,85.6,263,60.6L263,60.6z M93.1,202.7c-82,36.2,27.8-161.8,78.2-174.4c50.4-12.6,101.3,17.9,113.8,68.1
			c12.4,50.1-26.5,57-42.4,130.8C226.8,300.9,175.1,166.5,93.1,202.7z"/>
		
			<linearGradient id="SVGID_3_" gradientUnits="userSpaceOnUse" x1="464.0879" y1="463.1355" x2="464.2516" y2="462.1667" gradientTransform="matrix(124.3 0 0 -121.031 -57598.0938 56093.4023)">
			<stop  offset="0" style="stop-color:#853BFF"/>
			<stop  offset="1" style="stop-color:#3839EB;stop-opacity:0.32"/>
		</linearGradient>
		<path class="st4" d="M160.2,95.8l-0.3-4.7c-0.2-1.6-0.5-3.1-0.8-4.7c-0.1-0.8-0.3-1.5-0.4-2.3l-0.6-2.3l-0.6-2.3l-0.3-1.1
			l-0.4-1.1l-1.7-4.4c-1.4-2.8-2.7-5.6-4.4-8.2c-3.3-5.3-7-10.4-11.6-14.7c-0.6-0.5-1.1-1.1-1.7-1.6l-1.8-1.5c-1.2-1-2.4-2-3.8-2.8
			c-1.3-0.9-2.7-1.7-4.1-2.5c-1.4-0.7-2.9-1.4-4.3-2c-0.8-0.3-0.7-0.1,0.1,0.2c1.3,0.6,2.5,1.2,3.8,1.9c1.2,0.7,2.4,1.5,3.5,2.3
			l1.7,1.2c0.6,0.4,1.1,0.9,1.6,1.3l3.2,2.7c1,1,1.9,2,2.9,3c0.5,0.5,1,1,1.4,1.5l1.3,1.6c0.9,1.1,1.8,2.1,2.6,3.2l2.4,3.4
			c3,4.5,5.7,9.3,7.5,14.4c1.1,2.5,1.6,5.2,2.3,7.8c0.3,1.3,0.5,2.7,0.7,4c0.2,1.3,0.4,2.7,0.5,4.1l0.2,4.2c0,1.4-0.1,2.8-0.2,4.2
			l-0.1,2.1c0,0.7-0.2,1.4-0.3,2.1l-0.7,4.1c-0.3,1.4-0.7,2.7-1.1,4.1l-0.6,2l-0.7,2c-0.5,1.3-1,2.6-1.5,3.9l-1.9,3.8
			c-2.7,4.9-5.7,9.7-9.6,13.8c-0.5,0.5-0.9,1.1-1.4,1.6l-1.5,1.5c-1,0.9-2,2-3.1,2.8l-3.4,2.6c-0.6,0.4-1.1,0.8-1.8,1.2l-1.8,1.1
			c-2.4,1.5-5,2.6-7.5,3.8c-1.3,0.5-2.7,0.9-4,1.4c-0.7,0.2-1.3,0.5-2,0.6l-2,0.5c-5.4,1.4-11,1.7-16.6,1.7l-4.2-0.2l-1-0.1
			c-0.3,0-0.7-0.1-1-0.1l-2.1-0.3c-2.8-0.3-5.5-1.1-8.2-1.8c-1.3-0.4-2.6-0.9-4-1.4l-2-0.7c-0.6-0.3-1.3-0.6-1.9-0.9
			c-1.3-0.6-2.5-1.2-3.8-1.8l-3.6-2.2c-4.6-3.1-9-6.6-12.6-10.8l-1.4-1.5l-1.3-1.7c-0.8-1.1-1.7-2.2-2.5-3.4c-1.5-2.4-3-4.7-4.1-7.3
			c-1.3-2.5-2.1-5.2-3.1-7.8c-0.4-1.3-0.7-2.7-1-4.1l-0.5-2l-0.3-2.1c-0.2-1.4-0.4-2.8-0.5-4.1L38,98.7c0-0.7-0.1-1.4,0-2.1l0.1-2.1
			c0.1-1.4,0.1-2.8,0.2-4.1c0.6-6.1,2.1-12.1,4.4-17.8l1.9-4.2c0.7-1.4,1.5-2.7,2.3-4c0.7-1.4,1.7-2.6,2.6-3.9l1.4-1.9
			c0.5-0.6,1-1.2,1.5-1.8c0.9-1,1.8-2,2.7-3l3-2.7c0.5-0.4,1-0.9,1.5-1.3l1.6-1.2c1.1-0.8,2.1-1.7,3.2-2.4c2.3-1.4,4.5-3,6.8-4.1
			c1.2-0.6,2.3-1.3,3.5-1.9l3.6-1.7c0.8-0.4,0.2-0.7-0.6-0.3c-1.2,0.5-2.3,1.1-3.5,1.6c-1.2,0.5-2.3,1.2-3.5,1.7
			c-2.4,1.1-4.5,2.5-6.8,3.8c-4.4,2.8-8.6,6-12.1,9.9c-1.9,1.9-3.5,4.2-5.1,6.4c-0.8,1.1-1.4,2.3-2.1,3.5c-0.7,1.2-1.4,2.4-1.9,3.6
			l-1.7,3.7c-0.5,1.3-0.9,2.6-1.4,3.8l-0.7,1.9c-0.2,0.6-0.3,1.3-0.5,2l-1,3.9c-0.3,1.4-0.5,2.8-0.7,4.2l-0.3,2.1
			c-0.1,0.7-0.1,1.4-0.1,2.1L36,96.6c0,1.4,0.1,2.8,0.1,4.2l0.1,2.1c0.1,0.7,0.2,1.4,0.3,2.1l0.6,4.2l1,4.1c0.2,0.7,0.3,1.4,0.5,2.1
			l0.7,2c1.8,5.4,4.6,10.4,7.9,15.1l2.6,3.4c0.9,1.1,1.9,2.1,2.8,3.2l1.4,1.6l1.6,1.4c1.1,0.9,2.1,1.9,3.2,2.8
			c2.3,1.7,4.5,3.5,7,4.9c2.4,1.6,5,2.7,7.5,4c1.3,0.6,2.6,1,4,1.5l2,0.7c0.7,0.2,1.4,0.4,2.1,0.6c1.4,0.4,2.7,0.7,4.1,1.1l4.2,0.7
			c0.7,0.1,1.4,0.2,2.1,0.3l2.1,0.1c1.4,0.1,2.8,0.2,4.3,0.2l4.3-0.1c0.7,0,1.4,0,2.1-0.1l2.1-0.3c5.7-0.6,11.2-2.3,16.5-4.5
			l3.9-1.8c1.3-0.6,2.5-1.4,3.7-2.1l1.8-1.1c0.6-0.4,1.2-0.8,1.8-1.2c1.2-0.8,2.3-1.7,3.5-2.5c2.1-1.9,4.4-3.7,6.3-5.9l1.5-1.6
			c0.5-0.5,1-1.1,1.4-1.6l2.6-3.4c0.5-0.6,0.8-1.2,1.2-1.8l1.1-1.8l1.1-1.9c0.4-0.6,0.6-1.3,1-1.9l1.8-3.9c0.5-1.3,1-2.7,1.4-4.1
			c0.2-0.7,0.5-1.4,0.7-2l0.5-2.1c0.3-1.4,0.7-2.8,0.9-4.2c0.4-2.8,0.9-5.7,0.9-8.5l0.1-2.4l0-1.2C160.3,96.6,160.3,96.2,160.2,95.8
			"/>
	</g>
</g>
</svg>
