<svg id="Ebene_1" data-name="Ebene 1" xmlns="http://www.w3.org/2000/svg" xmlns:xlink="http://www.w3.org/1999/xlink" viewBox="0 0 612 441.9"><defs><style>.cls-1{fill:none;}.cls-2{fill:url(#Verlauf_Venovum);}.cls-3{fill:url(#Verlauf_Venovum-2);}.cls-4{fill:url(#Verlauf_Venovum-3);}</style><linearGradient id="Verlauf_Venovum" x1="238.73" y1="405.61" x2="544.24" y2="405.61" gradientUnits="userSpaceOnUse"><stop offset="0" stop-color="#01b1a3"/><stop offset="0.18" stop-color="#00acd8"/><stop offset="0.41" stop-color="#427bbf"/><stop offset="0.71" stop-color="#6d378d"/><stop offset="0.94" stop-color="#3e2885"/></linearGradient><linearGradient id="Verlauf_Venovum-2" x1="238.73" y1="354.9" x2="609" y2="354.9" xlink:href="#Verlauf_Venovum"/><linearGradient id="Verlauf_Venovum-3" x1="236.36" y1="312.06" x2="661.55" y2="312.06" xlink:href="#Verlauf_Venovum"/></defs><title>Venovum_Logo</title><line class="cls-1" y1="277.66" x2="0.72" y2="276.93"/><path class="cls-2" d="M363,279.2a5.57,5.57,0,0,1,4.23,2.6L541.81,515c1.32,1.77,1.75,3.47,1.18,4.66s-2.17,1.93-4.37,2L245.15,532h-.36c-2.11,0-3.71-.7-4.51-2s-.73-3.14.25-5.14l118.18-242.3c1.06-2.17,2.63-3.41,4.33-3.41m0-1c-2,0-4,1.34-5.23,4L239.63,524.47c-2.32,4.77,0,8.54,5.16,8.54h.39l293.47-10.37c5.44-.2,7.22-3.91,4-8.27L368.07,281.2c-1.51-2-3.3-3-5-3Z" transform="translate(-49.55 -91.11)"/><path class="cls-3" d="M299.46,179.78a6.6,6.6,0,0,1,3.71,1.47L603.49,400.92c1.69,1.24,2.64,2.62,2.5,3.61s-1.48,2-3.45,2.71L247.88,529.52a8.12,8.12,0,0,1-2.64.49,3.26,3.26,0,0,1-2.62-1c-.8-.94-1.08-2.55-.76-4.52l53.87-340.16c.22-1.36,1-4.53,3.73-4.53m0-3c-3.33,0-6,2.52-6.69,7.07L238.89,524c-.87,5.5,1.85,9,6.35,9a11.09,11.09,0,0,0,3.62-.66L603.51,410.07c6.57-2.26,7.36-7.47,1.75-11.57L304.94,178.83a9.43,9.43,0,0,0-5.48-2.05Z" transform="translate(-49.55 -91.11)"/><path class="cls-4" d="M244.45,96.11a7.73,7.73,0,0,1,3.39,1L653.56,305.45c2.44,1.26,3,2.42,3,2.72s-.53,1.48-2.95,2.77L247.67,527a7.4,7.4,0,0,1-3.42,1c-2.52,0-2.89-3-2.89-4.82V101.05c0-1.85.4-4.94,3.09-4.94m0-5c-4.76,0-8.09,3.7-8.09,9.94V523.19c0,6.18,3.24,9.82,7.89,9.82A12.46,12.46,0,0,0,250,531.4L656,315.35c7.51-4,7.47-10.45-.11-14.34L250.13,92.64a12.53,12.53,0,0,0-5.68-1.53Z" transform="translate(-49.55 -91.11)"/></svg>